<svg width="22" height="20" viewBox="0 0 22 20" fill="none" xmlns="http://www.w3.org/2000/svg">
<path d="M6.86005 15.7266L4.16004 17.8828C4.06439 17.9582 3.94826 18.0061 3.82512 18.0212C3.70198 18.0363 3.57688 18.0178 3.46433 17.9679C3.35179 17.918 3.25641 17.8387 3.18926 17.7393C3.12211 17.6399 3.08594 17.5244 3.08496 17.4063V5C3.08496 4.83424 3.15413 4.67527 3.27726 4.55806C3.40038 4.44085 3.56737 4.375 3.7415 4.375H18.1853C18.3594 4.375 18.5264 4.44085 18.6495 4.55806C18.7727 4.67527 18.8418 4.83424 18.8418 5V15C18.8418 15.1658 18.7727 15.3247 18.6495 15.4419C18.5264 15.5592 18.3594 15.625 18.1853 15.625H7.16369L6.86005 15.7266Z" stroke="white" stroke-width="1.5" stroke-linecap="round" stroke-linejoin="round"/>
<path d="M8.33789 8.75H13.5902" stroke="white" stroke-width="1.5" stroke-linecap="round" stroke-linejoin="round"/>
<path d="M8.33789 11.25H13.5902" stroke="white" stroke-width="1.5" stroke-linecap="round" stroke-linejoin="round"/>
</svg>
