<svg width="17" height="18" viewBox="0 0 17 18" fill="none" xmlns="http://www.w3.org/2000/svg">
<path d="M16.0596 14V4C16.0596 1.832 12.3966 0 8.05957 0C3.72257 0 0.0595703 1.832 0.0595703 4V14C0.0595703 16.168 3.72257 18 8.05957 18C12.3966 18 16.0596 16.168 16.0596 14ZM8.05957 2C11.7506 2 13.9906 3.507 14.0596 3.994C13.9906 4.493 11.7506 6 8.05957 6C4.36857 6 2.12857 4.493 2.05957 4.006C2.12857 3.507 4.36857 2 8.05957 2ZM2.05957 6.607C3.53857 7.454 5.69657 8 8.05957 8C10.4226 8 12.5806 7.454 14.0596 6.607V8.994C13.9906 9.493 11.7506 11 8.05957 11C4.36857 11 2.12857 9.493 2.05957 9V6.607ZM2.05957 14V11.607C3.53857 12.454 5.69657 13 8.05957 13C10.4226 13 12.5806 12.454 14.0596 11.607V13.994C13.9906 14.493 11.7506 16 8.05957 16C4.36857 16 2.12857 14.493 2.05957 14Z" fill="white"/>
</svg>
