<svg width="22" height="20" viewBox="0 0 22 20" fill="none" xmlns="http://www.w3.org/2000/svg">
<path d="M11.0642 13.75C13.2398 13.75 15.0034 12.0711 15.0034 10C15.0034 7.92893 13.2398 6.25 11.0642 6.25C8.88865 6.25 7.125 7.92893 7.125 10C7.125 12.0711 8.88865 13.75 11.0642 13.75Z" stroke="white" stroke-width="1.5" stroke-linecap="round" stroke-linejoin="round"/>
<path d="M16.759 6.30469C16.9566 6.57396 17.1296 6.85886 17.2761 7.15625L19.4016 8.28125C19.667 9.41287 19.6698 10.586 19.4098 11.7188L17.2761 12.8438C17.1296 13.1411 16.9566 13.426 16.759 13.6953L16.8001 16.0156C15.8993 16.7971 14.8331 17.3858 13.6733 17.7422L11.5806 16.5469C11.2364 16.5703 10.8908 16.5703 10.5466 16.5469L8.46206 17.7344C7.2986 17.3845 6.22892 16.798 5.32709 16.0156L5.36813 13.7031C5.17221 13.4301 4.99933 13.1428 4.8511 12.8438L2.72557 11.7188C2.46016 10.5871 2.45736 9.41401 2.71736 8.28125L4.8511 7.15625C4.99758 6.85886 5.17055 6.57396 5.36813 6.30469L5.32709 3.98438C6.2279 3.20294 7.29406 2.61422 8.45385 2.25781L10.5466 3.45313C10.8908 3.42968 11.2364 3.42968 11.5806 3.45313L13.6651 2.26563C14.8286 2.61554 15.8982 3.20199 16.8001 3.98438L16.759 6.30469Z" stroke="white" stroke-width="1.5" stroke-linecap="round" stroke-linejoin="round"/>
</svg>
