<svg width="16" height="17" viewBox="0 0 16 17" fill="none" xmlns="http://www.w3.org/2000/svg">
<path d="M9.97374 15.2498V11.4998C9.97374 11.334 9.90457 11.1751 9.78145 11.0579C9.65832 10.9406 9.49133 10.8748 9.3172 10.8748H6.69106C6.51693 10.8748 6.34994 10.9406 6.22682 11.0579C6.10369 11.1751 6.03452 11.334 6.03452 11.4998V15.2498C6.03452 15.4156 5.96535 15.5745 5.84222 15.6917C5.7191 15.809 5.55211 15.8748 5.37798 15.8748H1.43876C1.26464 15.8748 1.09765 15.809 0.974522 15.6917C0.851397 15.5745 0.782227 15.4156 0.782227 15.2498V8.02324C0.783697 7.93674 0.803332 7.8514 0.839977 7.77224C0.876622 7.69308 0.929535 7.6217 0.995601 7.5623L7.56097 1.88261C7.682 1.77721 7.84009 1.71875 8.00413 1.71875C8.16817 1.71875 8.32626 1.77721 8.44729 1.88261L15.0127 7.5623C15.0787 7.6217 15.1316 7.69308 15.1683 7.77224C15.2049 7.8514 15.2246 7.93674 15.226 8.02324V15.2498C15.226 15.4156 15.1569 15.5745 15.0337 15.6917C14.9106 15.809 14.7436 15.8748 14.5695 15.8748H10.6303C10.4562 15.8748 10.2892 15.809 10.166 15.6917C10.0429 15.5745 9.97374 15.4156 9.97374 15.2498Z" stroke="white" stroke-width="1.5" stroke-linecap="round" stroke-linejoin="round"/>
</svg>
