<svg width="19" height="20" viewBox="0 0 19 20" fill="none" xmlns="http://www.w3.org/2000/svg">
<path d="M7.74701 0.000379428C7.57503 -0.000246431 7.40254 -6.76155e-05 7.22957 0.000692356C6.39701 0.00467103 5.55114 0.0271572 4.69806 0.0597019L4.94487 1.17252C5.83326 1.06926 6.80722 0.992365 7.7811 0.95392C8.30871 0.933087 8.83311 0.92209 9.34177 0.924862C10.8678 0.933043 12.2524 1.06479 13.1582 1.42564L13.5456 1.58005L13.3726 1.9683C12.109 4.80635 11.8168 7.54434 12.0148 10.2308C12.1125 7.04258 13.4016 4.20691 15.0938 0.571654C12.7911 0.178257 10.3266 0.00918601 7.74701 0.000334578V0.000379428ZM8.966 1.73445C8.58596 1.73477 8.19853 1.74268 7.81114 1.75797C5.99914 1.8295 4.19345 2.0481 3.0166 2.29871C4.3312 4.80568 5.39465 7.31841 6.08137 9.76797C6.16679 9.76505 6.25229 9.76572 6.33765 9.76999C6.51237 9.77879 6.68517 9.80316 6.85401 9.84107C6.15503 7.54341 5.35886 5.42429 4.36916 3.3084L4.14553 2.83033L4.65367 2.73788C5.93014 2.50551 7.24766 2.41557 8.5016 2.41516C8.58518 2.41516 8.66858 2.41548 8.75154 2.41624C9.54831 2.42339 10.3162 2.46577 11.0277 2.52956L11.5083 2.5727L11.3681 3.04733C10.555 5.79945 10.3957 8.75507 10.8555 11.5671C10.8631 11.5744 10.8709 11.5817 10.8784 11.589C11.0442 11.5293 11.1993 11.4684 11.3438 11.4033C10.9849 8.39055 11.1439 5.28231 12.4843 2.05118C11.7364 1.85525 10.5961 1.75283 9.34321 1.73673C9.21748 1.73514 9.09174 1.73439 8.966 1.7345V1.73445ZM15.2686 2.06459C13.9225 4.99522 12.9665 7.34371 12.8098 9.87902C13.6811 6.89269 15.3652 4.21567 17.2843 2.49577C16.6181 2.32494 15.9457 2.1811 15.2686 2.06459ZM2.44293 2.89292C1.6272 3.06583 0.83034 3.28533 0.0595703 3.5886C0.43465 3.92299 1.11272 4.54505 1.9354 5.37181C2.31405 4.97113 2.70022 4.57527 3.10299 4.21531C2.88966 3.77102 2.66962 3.33017 2.44293 2.89292ZM8.61844 3.2274C8.02621 3.22444 7.41998 3.24188 6.81157 3.2852C6.74774 3.89684 6.39588 4.46905 5.97562 5.03179C6.6466 6.66211 7.22609 8.32573 7.74779 10.092C8.54678 10.3343 9.33725 10.6208 9.97757 10.9639C9.73972 9.0659 9.77225 7.12104 10.0811 5.2191C9.52079 4.62409 9.22893 3.96336 9.20554 3.23692C9.00988 3.23156 8.81417 3.22838 8.61844 3.2274ZM16.533 4.43374C15.4577 5.74357 14.5102 7.38408 13.8645 9.16845C15.05 7.43473 16.5078 6.08243 18.0596 5.12719C17.554 4.88844 17.0451 4.65726 16.533 4.43374ZM3.45612 4.96835C2.82153 5.55791 2.19452 6.26554 1.54154 6.93968C2.94554 7.79759 4.1414 8.81359 5.11693 9.96436C5.1775 9.94085 5.23868 9.9197 5.30021 9.90043C4.84373 8.28679 4.21815 6.63555 3.45612 4.96835ZM13.6044 10.5453C12.8914 11.4299 12.2201 11.8969 11.2959 12.2695C11.3998 12.6817 11.2454 13.1549 10.89 13.5168C10.6809 13.7297 10.4182 13.9723 10.0341 14.1299C10.0895 14.1637 10.1461 14.1954 10.2037 14.225C10.7413 14.5008 11.6911 14.4119 12.5735 13.9993C13.4531 13.588 14.2389 12.8776 14.5302 12.1579C14.6762 11.7533 14.5719 11.5423 14.3164 11.2329C14.1345 11.0127 13.8687 10.7908 13.6044 10.5453V10.5453ZM6.2089 10.5715C5.74299 10.5671 5.26981 10.7053 4.87877 11.0078C4.32263 11.438 3.8939 12.2052 3.89007 13.5083V13.5172L3.88964 13.5262C3.76267 16.2702 3.95921 17.5361 4.34859 18.223C4.69228 18.8293 5.2639 19.1195 6.10007 19.6533C6.1399 19.5457 6.18138 19.4134 6.2203 19.2466C6.31931 18.8219 6.40123 18.2387 6.45314 17.5936C6.55702 16.3035 6.54185 14.7545 6.36814 13.6398L6.27634 13.0501L6.84231 13.184C8.21701 13.5091 9.00339 13.5475 9.45996 13.4647C9.91661 13.3819 10.0714 13.2178 10.3392 12.9451C10.591 12.6889 10.5863 12.5966 10.533 12.4524C10.4796 12.3082 10.2656 12.0704 9.90248 11.843C9.17619 11.3881 7.94207 10.9663 6.78852 10.6517C6.59933 10.6002 6.40461 10.5733 6.2089 10.5715ZM14.4314 13.6747C13.996 14.1107 13.4603 14.4687 12.8975 14.7318C11.9851 15.1584 10.9815 15.3535 10.1489 15.0694C9.85499 15.1819 9.68424 15.3112 9.5981 15.4181C9.47991 15.5649 9.47252 15.6729 9.51257 15.8276C9.55257 15.9823 9.67193 16.1659 9.81951 16.2981C9.96705 16.4302 10.1424 16.4989 10.2091 16.5021C12.2438 16.6015 13.1244 16.0011 14.2215 15.3048C14.5414 15.1018 14.6639 14.6904 14.6332 14.2797C14.6179 14.0743 14.5598 13.8813 14.4927 13.7598C14.476 13.7288 14.4554 13.7002 14.4314 13.6747ZM7.20522 14.0813C7.32379 15.2019 7.32575 16.5094 7.23313 17.66C7.17891 18.3338 7.09508 18.9465 6.98141 19.4341C6.93197 19.6463 6.87758 19.8344 6.81183 20L13.1906 19.711C13.1186 19.4361 13.0452 19.1601 12.9718 18.8839C12.7267 18.9677 12.4763 19.0338 12.2222 19.0816L12.2241 19.1143L11.8625 19.1374C11.6398 19.1649 11.408 19.18 11.1675 19.1818L7.52107 19.4147L7.62947 18.8958C7.97503 17.2415 8.0069 15.7849 7.79375 14.1914C7.59688 14.1586 7.40065 14.1219 7.20517 14.0813H7.20522ZM8.59544 14.2907C8.76711 15.7182 8.74645 17.0807 8.49082 18.5465L9.32846 18.4931C9.19711 18.2938 9.10684 18.0689 9.06322 17.8324C9.00687 17.5249 9.03822 17.1825 9.23393 16.8995C9.24259 16.8869 9.25194 16.8749 9.2612 16.8628C9.03309 16.6462 8.84255 16.3682 8.75619 16.0347C8.66427 15.6795 8.72167 15.2447 8.99522 14.905C9.08562 14.7928 9.19489 14.6915 9.3232 14.6003C9.20971 14.5073 9.11023 14.4087 9.02431 14.306C8.89108 14.307 8.74841 14.3019 8.59544 14.2907ZM14.3641 16.1587C13.3442 16.7958 12.1982 17.4048 10.1719 17.3059C10.1058 17.3026 10.0401 17.2934 9.97548 17.2785C9.92187 17.3032 9.89326 17.3346 9.87191 17.3655C9.83004 17.4261 9.80529 17.5354 9.83238 17.6835C9.88665 17.9797 10.1596 18.3044 10.4137 18.3348C12.2133 18.5499 13.4566 17.9447 14.2115 17.2405C14.5594 16.9161 14.5624 16.7086 14.5111 16.4828C14.4855 16.37 14.429 16.2606 14.3641 16.1587ZM14.0735 18.3519C13.9527 18.4298 13.8287 18.5023 13.7018 18.5692C13.7736 18.8397 13.8455 19.1102 13.9165 19.3808L14.7827 19.2211C14.5592 19.025 14.3843 18.8208 14.2439 18.6177C14.1812 18.527 14.126 18.4389 14.0735 18.3519Z" fill="#EBECF0"/>
</svg>
