<svg width="22" height="20" viewBox="0 0 22 20" fill="none" xmlns="http://www.w3.org/2000/svg">
<path d="M3.93945 10.9062V16.25C3.93945 16.4158 4.00862 16.5747 4.13175 16.6919C4.25487 16.8092 4.42187 16.875 4.59599 16.875H16.4137C16.5878 16.875 16.7548 16.8092 16.8779 16.6919C17.001 16.5747 17.0702 16.4158 17.0702 16.25V10.9062" stroke="white" stroke-width="1.5" stroke-linecap="round" stroke-linejoin="round"/>
<path d="M4.43164 3.125H16.5776C16.72 3.12612 16.8583 3.17075 16.972 3.25233C17.0858 3.33391 17.169 3.44812 17.2095 3.57812L18.383 7.5H2.62616L3.79972 3.57812C3.84016 3.44812 3.92339 3.33391 4.03716 3.25233C4.15093 3.17075 4.28921 3.12612 4.43164 3.125V3.125Z" stroke="white" stroke-width="1.5" stroke-linecap="round" stroke-linejoin="round"/>
<path d="M7.87845 7.5V8.75C7.87845 9.41304 7.60177 10.0489 7.10927 10.5178C6.61677 10.9866 5.9488 11.25 5.25231 11.25C4.55581 11.25 3.88784 10.9866 3.39534 10.5178C2.90284 10.0489 2.62616 9.41304 2.62616 8.75V7.5" stroke="white" stroke-width="1.5" stroke-linecap="round" stroke-linejoin="round"/>
<path d="M13.1312 7.5V8.75C13.1312 9.41304 12.8545 10.0489 12.362 10.5178C11.8695 10.9866 11.2016 11.25 10.5051 11.25C9.80856 11.25 9.14058 10.9866 8.64809 10.5178C8.15559 10.0489 7.87891 9.41304 7.87891 8.75V7.5" stroke="white" stroke-width="1.5" stroke-linecap="round" stroke-linejoin="round"/>
<path d="M18.383 7.5V8.75C18.383 9.41304 18.1063 10.0489 17.6138 10.5178C17.1214 10.9866 16.4534 11.25 15.7569 11.25C15.0604 11.25 14.3924 10.9866 13.8999 10.5178C13.4074 10.0489 13.1307 9.41304 13.1307 8.75V7.5" stroke="white" stroke-width="1.5" stroke-linecap="round" stroke-linejoin="round"/>
</svg>
