<svg width="22" height="20" viewBox="0 0 22 20" fill="none" xmlns="http://www.w3.org/2000/svg">
<path d="M3.8418 5V15C3.8418 15.3315 3.98014 15.6495 4.22639 15.8839C4.47264 16.1183 4.80662 16.25 5.15487 16.25H18.2856C18.4597 16.25 18.6267 16.1842 18.7498 16.0669C18.873 15.9497 18.9421 15.7908 18.9421 15.625V6.875C18.9421 6.70924 18.873 6.55027 18.7498 6.43306C18.6267 6.31585 18.4597 6.25 18.2856 6.25H5.15487C4.80662 6.25 4.47264 6.1183 4.22639 5.88388C3.98014 5.64946 3.8418 5.33152 3.8418 5ZM3.8418 5C3.8418 4.66848 3.98014 4.35054 4.22639 4.11612C4.47264 3.8817 4.80662 3.75 5.15487 3.75H16.316" stroke="white" stroke-width="1.5" stroke-linecap="round" stroke-linejoin="round"/>
<path d="M15.3314 12.0312C15.7847 12.0312 16.1521 11.6815 16.1521 11.25C16.1521 10.8185 15.7847 10.4688 15.3314 10.4688C14.8782 10.4688 14.5107 10.8185 14.5107 11.25C14.5107 11.6815 14.8782 12.0312 15.3314 12.0312Z" fill="black"/>
</svg>
