<svg xmlns="http://www.w3.org/2000/svg" width="181.122" height="128.883" viewBox="0 0 181.122 128.883">
  <g id="PREMIER_FEED_MILLS" data-name="PREMIER FEED MILLS" transform="translate(-0.522 -0.033)">
    <g id="Group_33" data-name="Group 33" transform="translate(0 118.447)">
      <path id="Fill_1" data-name="Fill 1" d="M2.9,6.662H2.575C1.059,6.662,0,5.824,0,4.624,0,2.959,1.737,2.61,3.195,2.61h.559V2.526c0-.859-.374-1.179-1.382-1.179a2.614,2.614,0,0,0-2.039.739H.275V1.573C.275.79,1,0,2.611,0,3.85,0,5.328.5,5.328,2.884V4.362A2.266,2.266,0,0,1,2.9,6.662Zm.3-2.908c-1.11,0-1.562.235-1.562.811,0,.507.4.8,1.11.8.689,0,1.023-.324,1.023-.989v-.62Z" transform="translate(0.522 1.829)" fill="#117d48"/>
      <path id="Fill_3" data-name="Fill 3" d="M5.231,6.578A1.062,1.062,0,0,1,4.063,5.529V2.979c0-1.085-.477-1.561-1.3-1.561-.691,0-1.168.524-1.168,1.442V6.578H1.12A1.04,1.04,0,0,1,0,5.529V2.753A2.679,2.679,0,0,1,2.895,0,2.658,2.658,0,0,1,5.66,2.836V6.578Z" transform="translate(7.117 1.806)" fill="#117d48"/>
      <path id="Fill_5" data-name="Fill 5" d="M5.018.513a.862.862,0,0,1-.93.846H1.574V3.385H4.517v.488a.79.79,0,0,1-.786.811h-2.1V8.163H.955A.856.856,0,0,1,0,7.21V1.263C0,.25.406,0,1.36,0H5.018Z" transform="translate(16.976 0.22)" fill="#117d48"/>
      <path id="Fill_7" data-name="Fill 7" d="M8.879,8.163A.97.97,0,0,1,7.83,7.079c0-1.037-.179-4.028-.309-4.839-.108.263-.263.6-.382.965l-1.144,3.5a5.95,5.95,0,0,1-.668,1.454h-.44c-.536,0-1.014-.417-1.312-1.3L2.407,3.42c-.142-.417-.333-.9-.452-1.192A50.351,50.351,0,0,0,1.6,8.163H1.025A.981.981,0,0,1,0,7.079,53.431,53.431,0,0,1,.656,0H1A2.184,2.184,0,0,1,3.242,1.382L4.374,4.576a10.764,10.764,0,0,1,.465,1.549,7.638,7.638,0,0,1,.227-.834l.941-2.9A5.694,5.694,0,0,1,7.282,0h.191c.905,0,1.5.572,1.633,1.692C9.26,2.979,9.5,6.53,9.5,8.163Z" transform="translate(22.652 0.221)" fill="#117d48"/>
      <path id="Fill_9" data-name="Fill 9" d="M6.007,8.163c-.632,0-1.323-.19-2.336-2.157L2.182,3.11a6.632,6.632,0,0,0-.549-.953V8.163H.989A1,1,0,0,1,0,7.091V0H.811A2.484,2.484,0,0,1,3.123,1.668l1.43,2.86c.167.334.357.822.476,1.1V0h.728a.969.969,0,0,1,.894.941V8.163Z" transform="translate(33.574 0.221)" fill="#117d48"/>
      <path id="Fill_11" data-name="Fill 11" d="M1.382,8.164H.751C.246,8.163,0,7.906,0,7.377,0,6.2,1.543,1.376,2.777,0h.668A1.492,1.492,0,0,1,4.767.751,26.069,26.069,0,0,1,7.055,8.162H6.388a1.01,1.01,0,0,1-1.1-.786,12.749,12.749,0,0,0-.226-1.3H1.812c-.163.679-.308,1.381-.429,2.086ZM3.432,1.5A14.2,14.2,0,0,0,2.169,4.778H4.7A14.569,14.569,0,0,0,3.432,1.5Z" transform="translate(41.242 0.22)" fill="#117d48"/>
      <path id="Fill_13" data-name="Fill 13" d="M4.075,8.449A3.98,3.98,0,0,1,0,4.326,4.2,4.2,0,0,1,4.469,0C5.994,0,6.661.846,6.661,1.609v.56H6.6a3.755,3.755,0,0,0-2.323-.691A2.524,2.524,0,0,0,1.679,4.1c0,2.062,1.122,2.872,2.587,2.872.787,0,.977-.3.977-.774V5.542A6.1,6.1,0,0,0,5.124,4.35h.834a.843.843,0,0,1,.835.75V6.412c0,1.227-.68,2.037-2.718,2.037" transform="translate(48.921 0.077)" fill="#117d48"/>
      <path id="Fill_15" data-name="Fill 15" d="M5.386,8.294a1.179,1.179,0,0,1-1.192-.727L3.587,6.089c-.372-.9-.713-.954-1.145-1.025a6.408,6.408,0,0,0-.811-.107V8.234H1.108A1.013,1.013,0,0,1,0,7.137V.3A8.939,8.939,0,0,1,2.1,0H3A2.4,2.4,0,0,1,5.684,2.347,2.123,2.123,0,0,1,4,4.516,2.15,2.15,0,0,1,5.016,5.66l.656,1.525a3.49,3.49,0,0,0,.427.743c.029.04.053.073.073.1C5.987,8.229,5.847,8.294,5.386,8.294ZM2.359,1.406a4.039,4.039,0,0,0-.727.083V3.646A5.966,5.966,0,0,0,2.8,3.718,1.116,1.116,0,0,0,4.028,2.609c0-1.058-.585-1.2-1.217-1.2Z" transform="translate(56.994 0.149)" fill="#117d48"/>
      <path id="Fill_17" data-name="Fill 17" d="M3.73,8.449A3.577,3.577,0,0,1,1.092,7.316,4.294,4.294,0,0,1,0,4.35C0,1.707,1.534,0,3.908,0A3.61,3.61,0,0,1,6.516,1.08,4.208,4.208,0,0,1,7.639,4.1,4.689,4.689,0,0,1,6.619,7.2,3.669,3.669,0,0,1,3.73,8.449Zm.024-7.007C2.494,1.442,1.68,2.485,1.68,4.1c0,1.973.721,2.932,2.205,2.932,1.317,0,2.073-.986,2.073-2.7C5.958,2.466,5.175,1.442,3.754,1.442Z" transform="translate(63.671 0.077)" fill="#117d48"/>
      <path id="Fill_19" data-name="Fill 19" d="M5.16,2.134a1.974,1.974,0,0,0-1.74-.668,1.745,1.745,0,0,0-1.752,1.7A1.77,1.77,0,0,0,3.444,5.137a2.094,2.094,0,0,0,1.692-.6H5.2V5.28c0,.774-.75,1.334-1.906,1.334A3.239,3.239,0,0,1,0,3.408,3.3,3.3,0,0,1,3.468,0,1.566,1.566,0,0,1,5.22,1.383v.751Z" transform="translate(74.939 1.888)" fill="#117d48"/>
      <path id="Fill_21" data-name="Fill 21" d="M3.039,6.721A2.875,2.875,0,0,1,.8,5.74,3.43,3.43,0,0,1,0,3.48,3.781,3.781,0,0,1,.813,1.016,3,3,0,0,1,3.182,0,3.057,3.057,0,0,1,6.221,3.253a3.71,3.71,0,0,1-.813,2.459A3.006,3.006,0,0,1,3.039,6.721Zm0-5.291c-.866,0-1.383.681-1.383,1.822,0,1.353.514,2.039,1.526,2.039.865,0,1.382-.677,1.382-1.811C4.564,2.139,4.037,1.43,3.039,1.43Z" transform="translate(81.02 1.805)" fill="#117d48"/>
      <path id="Fill_23" data-name="Fill 23" d="M8.938,6.578c-.87,0-1.216-.405-1.216-1.168V2.932c0-1.061-.476-1.514-1.18-1.514-.643,0-1.083.453-1.083,1.335V6.578h-.43A1.072,1.072,0,0,1,3.861,5.41V2.932c0-1.061-.488-1.514-1.192-1.514-.619,0-1.084.488-1.084,1.37v3.79H1.156A1.1,1.1,0,0,1,0,5.41V2.92A2.62,2.62,0,0,1,2.86,0,2.366,2.366,0,0,1,4.815,1,2.184,2.184,0,0,1,6.662,0a2.508,2.508,0,0,1,2.67,2.717V6.578Z" transform="translate(88.507 1.806)" fill="#117d48"/>
      <path id="Fill_25" data-name="Fill 25" d="M1.621,8.6h-.5A1.092,1.092,0,0,1,0,7.5V3.61a4.019,4.019,0,0,1,.76-2.6A3.007,3.007,0,0,1,3.218,0a2.768,2.768,0,0,1,2.1.977A3.37,3.37,0,0,1,6.138,3.17a4.112,4.112,0,0,1-.747,2.549,2.618,2.618,0,0,1-2.151,1,1.876,1.876,0,0,1-1.62-.953V8.6ZM2.968,1.418c-.846,0-1.372.717-1.372,1.87C1.6,4.531,2.2,5.3,3.182,5.3c.784,0,1.31-.689,1.31-1.715C4.493,2.108,4.008,1.418,2.968,1.418Z" transform="translate(99.394 1.805)" fill="#117d48"/>
      <path id="Fill_27" data-name="Fill 27" d="M2.9,6.662H2.574C1.058,6.662,0,5.824,0,4.624,0,2.959,1.737,2.61,3.194,2.61h.56V2.526c0-.859-.375-1.179-1.383-1.179a2.613,2.613,0,0,0-2.038.739H.274V1.573C.274.989.766,0,2.61,0,3.85,0,5.327.5,5.327,2.884V4.362A2.265,2.265,0,0,1,2.9,6.662Zm.3-2.908c-1.11,0-1.562.235-1.562.811,0,.507.4.8,1.11.8a.893.893,0,0,0,1.024-.989v-.62Z" transform="translate(106.501 1.829)" fill="#117d48"/>
      <path id="Fill_29" data-name="Fill 29" d="M5.232,6.578A1.062,1.062,0,0,1,4.064,5.529V2.979c0-1.085-.477-1.561-1.3-1.561-.691,0-1.168.524-1.168,1.442V6.578H1.121A1.041,1.041,0,0,1,0,5.529V2.753A2.68,2.68,0,0,1,2.9,0,2.658,2.658,0,0,1,5.661,2.836V6.578Z" transform="translate(113.094 1.806)" fill="#117d48"/>
      <path id="Fill_31" data-name="Fill 31" d="M1.358,8.521a1.043,1.043,0,0,1-1.12-.989V7.221l.906-.059c.584-.036.786-.274,1.132-1.18A20.336,20.336,0,0,1,0,0H.846a.933.933,0,0,1,.93.75A13.84,13.84,0,0,0,3.062,4.457,18.083,18.083,0,0,0,4.314,0h.691c.512,0,.75.226.75.75a24.481,24.481,0,0,1-1.418,4.3C3.146,7.865,2.514,8.521,1.358,8.521" transform="translate(119.653 1.949)" fill="#117d48"/>
    </g>
    <path id="Fill_34" data-name="Fill 34" d="M3.216,26.316a3.041,3.041,0,0,1-2.124-.822A3.869,3.869,0,0,1,.05,22.588L0,1.242A26.611,26.611,0,0,1,6.782.007L9.717,0h.031a9.159,9.159,0,0,1,6.229,2.1,7.8,7.8,0,0,1,2.448,6,8.864,8.864,0,0,1-2.514,6.538,8.877,8.877,0,0,1-6.27,2.4H9.6a9.317,9.317,0,0,1-4.344-.866L5.28,26.311l-2.058.005ZM9.1,4.423H9.079l-1.678,0a9.439,9.439,0,0,0-1.716.256c-.163.034-.317.066-.456.093l.017,7.394a14.528,14.528,0,0,0,3.67.45h.029c2.615-.007,4.112-1.483,4.107-4.05A4.435,4.435,0,0,0,12.1,5.384,4,4,0,0,0,9.1,4.423Z" transform="translate(2.454 48.564)" fill="#828583"/>
    <path id="Fill_36" data-name="Fill 36" d="M11.657,5.174a7.415,7.415,0,0,0-2.975-.6C6.4,4.577,5.14,5.838,5.148,8.963l.027,11.816-1.41,0C1.478,20.787.027,19.648.022,17.513L0,8.061C-.01,3.944,2.155.013,7.567,0c3.164-.008,4.273,1.781,4.277,3.345l0,1.829Z" transform="translate(23.561 54.047)" fill="#828583"/>
    <path id="Fill_38" data-name="Fill 38" d="M10.1,21.5A10.139,10.139,0,0,1,0,11.192,11.772,11.772,0,0,1,2.811,3.029,9.54,9.54,0,0,1,10.036,0h.019a8.492,8.492,0,0,1,5.711,2.133,7.627,7.627,0,0,1,2.523,5.815,3.932,3.932,0,0,1-2.268,3.916c-1.483.741-3.823,1.09-7.364,1.1L5.3,12.97c.377,2.523,2.685,4.219,5.746,4.219h.02c1.916,0,4.561-.349,6.285-1.959h.19l0,1.6a3.857,3.857,0,0,1-1.594,3.314c-1.226.891-3.187,1.347-5.828,1.353ZM9.6,4.27H9.589A4.129,4.129,0,0,0,6.552,5.583a4.821,4.821,0,0,0-1.26,3.082l-.036.686,2.287-.006a16.059,16.059,0,0,0,4.787-.459,1.476,1.476,0,0,0,1.154-1.536C13.48,5.392,12.065,4.27,9.6,4.27Z" transform="translate(37.328 53.742)" fill="#828583"/>
    <path id="Fill_40" data-name="Fill 40" d="M28.614,21.022c-2.783.007-3.891-1.286-3.9-3.726L24.7,9.367c-.007-3.391-1.536-4.837-3.785-4.832-2.058.005-3.465,1.458-3.458,4.278l.028,12.235-1.372,0a3.426,3.426,0,0,1-3.744-3.726L12.349,9.4C12.342,6,10.776,4.559,8.527,4.564c-1.982.005-3.466,1.571-3.459,4.392L5.1,21.077l-1.372,0A3.512,3.512,0,0,1,.018,17.353L0,9.386C-.013,3.784,2.913.042,9.126.027a7.575,7.575,0,0,1,6.259,3.187A6.984,6.984,0,0,1,21.285,0c4.726-.012,8.545,2.837,8.558,8.669l.029,12.35Z" transform="translate(59.583 53.666)" fill="#828583"/>
    <path id="Fill_42" data-name="Fill 42" d="M6.626,28.2a6.027,6.027,0,0,1-4.539-1.64A6.644,6.644,0,0,1,.5,21.808L.469,7.895l1.448,0h.018c2.382,0,3.645,1.316,3.651,3.8l.022,9.6c0,1.993.816,2.7,3.1,2.7h.028l.953,0,0,1.105a3.217,3.217,0,0,1-.7,2.374,3.133,3.133,0,0,1-2.338.72ZM2.98,5.984H2.973A2.93,2.93,0,0,1,.875,5.1,3.011,3.011,0,0,1,0,2.979,2.976,2.976,0,0,1,2.965,0h.007A3,3,0,0,1,5.984,2.966,3.054,3.054,0,0,1,2.98,5.984Z" transform="translate(94.543 46.651)" fill="#828583"/>
    <path id="Fill_44" data-name="Fill 44" d="M10.1,21.5A10.139,10.139,0,0,1,0,11.192,11.772,11.772,0,0,1,2.811,3.029,9.54,9.54,0,0,1,10.036,0h.019a8.493,8.493,0,0,1,5.711,2.132,7.626,7.626,0,0,1,2.523,5.815,3.933,3.933,0,0,1-2.268,3.917c-1.484.742-3.823,1.09-7.364,1.1L5.3,12.97c.377,2.523,2.685,4.218,5.744,4.218h.022c1.915,0,4.56-.349,6.284-1.959h.191l0,1.6a3.858,3.858,0,0,1-1.594,3.314c-1.226.891-3.187,1.347-5.828,1.353ZM9.607,4.27H9.589A4.129,4.129,0,0,0,6.552,5.583a4.821,4.821,0,0,0-1.26,3.082l-.036.685,2.287-.005a16.076,16.076,0,0,0,4.787-.459,1.476,1.476,0,0,0,1.154-1.536C13.48,5.392,12.067,4.27,9.607,4.27Z" transform="translate(106.128 53.583)" fill="#828583"/>
    <path id="Fill_46" data-name="Fill 46" d="M11.657,5.174a7.415,7.415,0,0,0-2.975-.6C6.4,4.577,5.14,5.838,5.148,8.963l.027,11.816-1.41,0C1.478,20.787.027,19.648.022,17.513L0,8.061C-.01,3.944,2.155.013,7.567,0c3.164-.008,4.273,1.781,4.277,3.345l0,1.829Z" transform="translate(128.343 53.804)" fill="#828583"/>
    <path id="Fill_48" data-name="Fill 48" d="M16.042,1.639a2.757,2.757,0,0,1-2.967,2.713L5.032,4.37l.015,6.48,9.415-.023,0,1.564a2.526,2.526,0,0,1-2.509,2.6L5.248,15l.026,11.13-2.173,0A2.736,2.736,0,0,1,.044,23.1L0,4.077C-.007.837,1.287.035,4.336.027L16.038,0Z" transform="translate(2.537 81.864)" fill="#828583"/>
    <path id="Fill_50" data-name="Fill 50" d="M10.1,21.5A10.14,10.14,0,0,1,0,11.192,11.771,11.771,0,0,1,2.811,3.029,9.541,9.541,0,0,1,10.037,0h.019a8.491,8.491,0,0,1,5.711,2.133,7.629,7.629,0,0,1,2.523,5.815,3.934,3.934,0,0,1-2.269,3.917c-1.484.742-3.824,1.09-7.364,1.1L5.3,12.971c.378,2.523,2.686,4.218,5.746,4.218h.02c1.915,0,4.56-.349,6.284-1.959h.191l0,1.6a3.857,3.857,0,0,1-1.594,3.314c-1.226.891-3.187,1.346-5.828,1.352ZM9.6,4.27H9.589A4.129,4.129,0,0,0,6.552,5.583a4.823,4.823,0,0,0-1.26,3.082l-.036.685,2.287-.006a16.063,16.063,0,0,0,4.787-.459,1.476,1.476,0,0,0,1.154-1.536C13.48,5.392,12.066,4.27,9.6,4.27Z" transform="translate(19.566 86.907)" fill="#828583"/>
    <path id="Fill_52" data-name="Fill 52" d="M10.1,21.5A10.139,10.139,0,0,1,0,11.192,11.772,11.772,0,0,1,2.811,3.029,9.54,9.54,0,0,1,10.036,0h.019a8.492,8.492,0,0,1,5.71,2.132,7.628,7.628,0,0,1,2.523,5.815,3.934,3.934,0,0,1-2.269,3.917c-1.484.742-3.824,1.09-7.364,1.1L5.3,12.97c.378,2.523,2.685,4.218,5.744,4.218h.022c1.915,0,4.56-.349,6.284-1.958h.191l0,1.6a3.858,3.858,0,0,1-1.594,3.314c-1.226.891-3.187,1.347-5.828,1.353ZM9.606,4.27H9.588A4.128,4.128,0,0,0,6.552,5.583a4.822,4.822,0,0,0-1.26,3.082l-.037.685,2.287-.005a16.081,16.081,0,0,0,4.787-.459,1.476,1.476,0,0,0,1.154-1.536C13.48,5.392,12.066,4.27,9.606,4.27Z" transform="translate(40.836 86.858)" fill="#828583"/>
    <path id="Fill_54" data-name="Fill 54" d="M9.57,27.915a9.133,9.133,0,0,1-6.806-3.06A10.8,10.8,0,0,1,0,17.571C-.017,10.6,3.436,6.433,9.236,6.419h.01a5.965,5.965,0,0,1,5.106,3.228L14.328,0l1.563,0H15.9a3.146,3.146,0,0,1,3.505,3.46l.034,14.486c.007,3.123-.758,5.553-2.275,7.223-1.649,1.815-4.2,2.739-7.573,2.747ZM9.3,10.726H9.285a3.713,3.713,0,0,0-3.1,1.679,7.225,7.225,0,0,0-1.153,4.163c.009,4.145,2.127,7.04,5.15,7.04h.011a3.528,3.528,0,0,0,3.127-1.542,7.848,7.848,0,0,0,.976-4.338C14.284,13.213,12.509,10.726,9.3,10.726Z" transform="translate(62.105 80.392)" fill="#828583"/>
    <path id="Fill_56" data-name="Fill 56" d="M28.405,26.1a3.1,3.1,0,0,1-3.363-3.461c-.007-3.316-.6-12.882-1.026-15.474-.341.84-.835,1.909-1.213,3.091L19.17,21.47a19.086,19.086,0,0,1-2.124,4.655l-1.41,0c-1.715,0-3.244-1.326-4.2-4.144L7.673,10.977C7.212,9.643,6.6,8.082,6.215,7.168c-.678,3.738-1.111,14.22-1.1,18.985l-1.829,0A3.139,3.139,0,0,1,0,22.7,170.881,170.881,0,0,1,2.045.051l1.1,0C6.77.039,9.328,1.672,10.325,4.453L13.97,14.66a34.3,34.3,0,0,1,1.5,4.952,24.534,24.534,0,0,1,.718-2.671l2.99-9.269C20.5,3.514,22.172.88,23.237,0h.609c2.9-.006,4.807,1.818,5.235,5.4.505,4.115,1.294,15.472,1.306,20.694Z" transform="translate(94.404 81.633)" fill="#828583"/>
    <path id="Fill_58" data-name="Fill 58" d="M6.627,28.2a6.029,6.029,0,0,1-4.539-1.64A6.643,6.643,0,0,1,.5,21.808L.469,7.9l1.449,0h.018c2.382,0,3.645,1.315,3.651,3.8l.022,9.6c.005,1.993.818,2.7,3.1,2.7H8.74l.953,0,0,1.105a3.217,3.217,0,0,1-.7,2.374,3.133,3.133,0,0,1-2.338.72ZM2.98,5.984H2.973A2.93,2.93,0,0,1,.875,5.1,3.011,3.011,0,0,1,0,2.979,2.978,2.978,0,0,1,2.966,0h.007A3,3,0,0,1,5.985,2.966,3.054,3.054,0,0,1,2.98,5.984Z" transform="translate(129.459 79.694)" fill="#828583"/>
    <path id="Fill_60" data-name="Fill 60" d="M6.582,27.621c-4.23.011-6.523-2.233-6.533-6.388L0,0,1.449,0C4-.007,5.111,1.477,5.116,3.421l.04,17.3c0,2.059,1.073,2.7,3.474,2.7l1.373,0,0,1.1c.006,2.21-1.174,3.09-3.423,3.1" transform="translate(142.146 80.241)" fill="#828583"/>
    <path id="Fill_62" data-name="Fill 62" d="M6.583,27.622C2.352,27.632.06,25.388.05,21.233L0,0,1.449,0C4-.006,5.112,1.477,5.117,3.421l.04,17.305c.005,2.058,1.073,2.7,3.474,2.7l1.373,0,0,1.1c.006,2.21-1.174,3.09-3.423,3.1" transform="translate(154.571 80.211)" fill="#828583"/>
    <path id="Fill_64" data-name="Fill 64" d="M7.237,21.5c-3.773.009-6.6-1.929-6.6-4.025l0-2.326H.819A10.241,10.241,0,0,0,7,17.08c2.516-.006,3.734-.733,3.73-2.258,0-1.181-.728-1.752-4.274-2.239C2.108,11.984.007,10.273,0,7.148-.01,3.3,3.452.012,8.712,0c4.65-.011,6.561,2.386,6.566,4.367l0,1.945h-.19A8.969,8.969,0,0,0,9.218,4.42c-3.126.007-4.115.963-4.111,2.3,0,1.029.613,1.446,4.121,2.011,4.271.675,6.561,2.538,6.569,5.816.01,4.345-3.033,6.943-8.56,6.957" transform="translate(165.848 86.572)" fill="#828583"/>
    <path id="Fill_66" data-name="Fill 66" d="M21.176,46.921S-13.8,32.192,6.148,0c0,0,31.972,10.118,18.069,46.256,0,0-8.267-10.263-11.152-23.446,0,0-.073,15.715,8.111,24.111" transform="translate(16.292 2.309)" fill="#85bf43"/>
    <path id="Fill_68" data-name="Fill 68" d="M11.3,49.181S-15.988,22.8,14.251,0c0,0,26.15,21,.119,49.66,0,0-4-12.557-1.919-25.891,0,0-5.75,14.624-1.156,25.412" transform="translate(26.168 0.033)" fill="#117d48"/>
    <path id="Fill_70" data-name="Fill 70" d="M32.722,37.429S-5.229,37.479.611.061c0,0,33.389-3.127,34.652,35.571,0,0-11.609-6.234-19.4-17.254,0,0,6.05,14.5,16.858,19.051" transform="translate(4.756 11.801)" fill="#fbdb1d"/>
  </g>
</svg>
